<?xml version="1.0" standalone="no"?>
<!DOCTYPE svg PUBLIC "-//W3C//DTD SVG 20010904//EN"
 "http://www.w3.org/TR/2001/REC-SVG-20010904/DTD/svg10.dtd">
<svg version="1.0" xmlns="http://www.w3.org/2000/svg"
 width="316.000000pt" height="254.000000pt" viewBox="0 0 316.000000 254.000000"
 preserveAspectRatio="xMidYMid meet">
<metadata>
Created by potrace 1.16, written by Peter Selinger 2001-2019
</metadata>
<g transform="translate(0.000000,254.000000) scale(0.100000,-0.100000)"
fill="#000000" stroke="none">
<path d="M0 1270 l0 -1270 1580 0 1580 0 0 1270 0 1270 -1580 0 -1580 0 0
-1270z m2806 975 c-4 -14 -20 -118 -36 -233 -37 -259 -69 -362 -119 -375 -13
-3 -40 8 -73 29 -29 18 -63 34 -74 34 -28 0 -120 -99 -145 -155 -10 -22 -23
-69 -28 -105 -13 -78 -13 -433 -1 -775 9 -261 7 -300 -16 -309 -25 -10 -36 36
-45 185 -4 82 -10 163 -13 181 -4 18 -15 164 -26 323 -11 160 -25 335 -31 390
-6 55 -14 188 -18 295 -7 194 -18 250 -47 250 -19 0 -47 -85 -93 -283 -65
-274 -89 -346 -133 -387 -34 -32 -57 -25 -78 23 -22 50 -34 137 -55 392 -16
192 -30 291 -46 316 -25 40 -86 -65 -123 -212 -14 -53 -39 -206 -56 -340 -35
-274 -58 -397 -90 -482 -25 -66 -64 -117 -89 -117 -52 0 -141 187 -141 296 0
109 -30 64 -51 -76 -14 -96 -82 -390 -115 -500 -44 -146 -112 -250 -164 -250
-54 0 -82 166 -120 710 -28 395 -57 609 -109 788 -36 126 -52 152 -90 152 -62
0 -183 -179 -247 -365 -29 -85 -44 -112 -44 -80 0 30 81 224 120 290 46 76
124 161 155 169 59 15 86 -29 134 -216 37 -144 66 -351 86 -618 28 -375 46
-584 55 -645 14 -88 39 -165 56 -172 35 -13 99 85 144 218 27 80 116 455 125
529 10 80 23 126 41 141 22 18 34 -3 34 -62 0 -85 65 -251 112 -283 27 -19 41
-9 74 55 47 93 65 185 119 599 37 282 75 411 140 476 63 63 79 -2 115 -446 25
-298 63 -366 129 -226 31 65 48 123 111 388 49 207 70 253 108 229 33 -20 44
-86 52 -306 5 -121 11 -233 14 -250 3 -16 15 -163 26 -325 12 -162 27 -362 35
-444 8 -82 15 -176 15 -210 0 -62 11 -98 24 -77 4 6 2 203 -4 438 -14 523 -7
644 39 737 33 68 127 166 159 166 10 0 41 -16 68 -35 67 -48 80 -46 110 19 29
65 47 147 69 316 23 184 36 250 47 250 6 0 7 -11 4 -25z"/>
</g>
</svg>
